<?xml version="1.0" encoding="utf-8"?>
<!-- Generator: Adobe Illustrator 22.0.1, SVG Export Plug-In . SVG Version: 6.00 Build 0)  -->
<!DOCTYPE svg PUBLIC "-//W3C//DTD SVG 1.1//EN" "http://www.w3.org/Graphics/SVG/1.1/DTD/svg11.dtd">
<svg version="1.1" id="Layer_1" xmlns="http://www.w3.org/2000/svg" xmlns:xlink="http://www.w3.org/1999/xlink" x="0px" y="0px"
	 viewBox="0 0 233.3 134" style="enable-background:new 0 0 233.3 134;" xml:space="preserve">
<style type="text/css">
	.st0{opacity:0.43;}
	.st1{fill:#3490DC;}
	.st2{fill:url(#SVGID_1_);}
	.st3{fill:url(#SVGID_2_);}
	.st4{fill:url(#SVGID_3_);}
	.st5{fill:url(#SVGID_4_);}
	.st6{fill:url(#SVGID_5_);}
	.st7{fill:url(#SVGID_6_);}
	.st8{fill:url(#SVGID_7_);}
	.st9{fill:url(#SVGID_8_);}
	.st10{fill:url(#SVGID_9_);}
	.st11{fill:url(#SVGID_10_);}
</style>
<g class="st0">
	<g>
		<path class="st1" d="M42.8,70.1c0.2-1.8,0.7-4.4,1.6-7.9l-8.1,13.4c1-2.5,1.5-4.6,1.5-6.2s-0.5-2.7-1.5-3.4c1.5,1,2.2,1.5,2.2,1.6
			c0,0,0,0-0.1,0v0.3H38C36.3,70,35.2,71,34.7,71c-0.2,0-0.2-0.1-0.2-0.4c0-0.8,0.7-2.6,2.1-5.6c0.4-4,3.4-12.8,8.7-26.3v-0.2h-0.2
			c-1.5,2.9-4.6,6.4-9.5,10.4c-1.5,0.5-2.2,0.7-2.2,0.9v1.4H33v-1.6h-0.2c-0.1,0.5-0.2,0.9-0.2,1.1h-0.4c-0.4-1-1.5-6-3.2-15.2h-0.2
			c-0.9,3.4-2.8,8.6-5.8,15.6c-0.7,1.1-1.1,2.6-1.1,4.6c-0.5,0.4-1.1,2.1-1.7,4.9l-1.7,1.6c0,0.1-0.3,0.3-0.9,0.6
			c-2.4,4.1-4,6.4-5,6.8l4.9-8.8L12.2,70c1.9-5,2.9-7.6,2.9-7.9h-0.4c0,0.6-1.2,3-3.6,7.3L10,69.2l-0.7-0.7c0.7-4,1.1-6.7,1.1-8.1
			c0-0.7,0.7-4.1,2.1-10.1c0-6.3,3.9-19.9,11.8-40.8C25,8.4,26,7.9,27.1,7.9c0,0.2,0.4,0.4,1.3,0.7c0.9-3,1.7-4.5,2.4-4.5h0.7v0.3
			c0.3,0,0.4-0.2,0.4-0.6h1.5c0,0.3,0.5,0.6,1.5,0.9c0-0.1,0.1-0.2,0.2-0.2c1.4,0.5,2.1,1.8,2.1,3.9v9.8c0,2.5,0.1,4.6,0.2,6.2
			c-0.1,1.1-0.2,3-0.2,5.8v5.9c0.3-0.1,2.6-3.3,6.9-9.6c3-3.8,7.3-8.7,12.9-14.9h0.2l-1.1,1.6v0.2h0.2c1.4-2.2,2.6-4.9,3.5-8.1
			c0.2-0.5,0.4-0.7,0.6-0.7c0.2,0.1,0.5,0.2,1.1,0.2c0.1-0.4,0.3-0.6,0.7-0.6c1.3,0.3,1.9,0.7,1.9,1h0.7c1.9,0.3,2.8,0.7,2.8,1.1
			c0.2,0,0.4,0.1,0.6,0.4C68.3,7,68.2,7,68.1,7l0.2,0.7c0,1.1-2.3,7.5-6.9,18.9c-3.1,7.2-5.3,13.6-6.7,19.1
			c-0.2,0.9-0.4,1.7-0.6,2.5c-0.3,1.3-0.5,2.5-0.6,3.6c-0.1,0.9-0.2,1.8-0.3,2.7c0,0,0,0,0.1,0s0.1,0.1,0.1,0.4c0,0.2,0,0.6-0.1,1.2
			c-0.2,1.7-0.9,4.6-2,8.9h-0.4v-0.6h-0.2V65h-0.4c-1.2,3.5-2.3,5.3-3.5,5.5l-1.1,0.6l2.8-5.7l-3.8,8.9l3.4-9.2h-0.2v0.4h-0.2
			c-0.2,0-0.4,0.2-0.8,0.7c-0.5,0.8-1.2,2.2-2.2,4.1l0.7-3.2l0.2-1.1l0.4-1.7l0.1-0.5v0.4L46,65.7l-0.2,1.2l-0.5,3.4l-0.5,3.9
			l-1-0.1L42.7,74l0.8-1.8l-1.1,1.4l0.8-0.5H43c-0.1,0-0.2-0.1-0.3-0.2c-0.1-0.2-0.1-0.5-0.1-1v-0.5C42.7,70.9,42.7,70.6,42.8,70.1z
			 M36.4,34.8v0.7c0.1,0.9,0.2,1.4,0.2,1.6h0.2v-0.7c-0.1-0.8-0.2-1.4-0.2-1.6H36.4z"/>
		<path class="st1" d="M111.3,9.6c8.3,0.3,13.4,0.4,15.1,0.4l1.6,0.2v0.4h-1.2v0.2h1.4v0.4c-4.5,2.1-13.6,5.1-27.2,8.8
			c-2.7,0.2-4,0.8-4,2c0,0.2-0.9,2-2.6,5.4h0.2l1.4-0.2h1.4l7.2,2v0.2l-0.2,0.4h0.5v0.4c-6.4,2.9-10,4.4-10.7,4.4
			c-3,0-4.5,0.6-4.5,1.8l-8.4,17.4h0.2c4.5-2.1,13.5-5,27-8.8v0.4c-0.8,0.1-1.2,0.3-1.2,0.6l1.2-0.2h0.2V46
			c-1.5,1.7-5.3,4.1-11.4,7.2c-6.6,4.3-12.7,7.7-18.4,10.2c-8.3,3.8-14,6.8-17.2,9c0,0.2-0.6,0.6-1.9,1.2h-0.2c-0.6-0.2-1-0.6-1-1.2
			l-2.1,0.4c-0.7-0.6-1.2-2-1.7-4c-0.3,0-0.5-0.2-0.5-0.6c1.1-2.8,10.4-18,28-45.4c0-0.2,0.5-1.3,1.6-3c-0.6,0-0.9-0.1-0.9-0.2
			c-0.3,0.1-0.5,0.2-0.7,0.2c-0.9,0-2.4,0.1-4.5,0.2c-1.6-0.5-2.4-0.9-2.4-1.2v-0.6h0.5c0-0.2-0.5-0.4-1.4-0.8
			c0-0.1,0.1-0.2,0.2-0.2l-0.2-1c0-0.5,0.4-1.1,1.2-1.8c1.5-0.8,3.2-1.4,5.3-1.8c1,0,10.8-1,29.4-3C110.4,9.6,111.3,9.6,111.3,9.6z"
			/>
		<path class="st1" d="M147.8,70.1c0.2-1.8,0.7-4.4,1.6-7.9l-8.1,13.4c1-2.5,1.5-4.6,1.5-6.2s-0.5-2.7-1.5-3.4
			c1.5,1,2.2,1.5,2.2,1.6c0,0,0,0-0.1,0v0.3H143c-1.7,2.1-2.8,3.1-3.3,3.1c-0.2,0-0.2-0.1-0.2-0.4c0-0.8,0.7-2.6,2.1-5.6
			c0.6-4.2,3.5-13.1,8.8-26.5v-0.2h-0.2c-1.5,2.9-4.6,6.4-9.5,10.4c-1.5,0.5-2.2,0.7-2.2,0.9V51h-0.4v-1.6h-0.2
			c-0.1,0.5-0.2,0.9-0.2,1.1h-0.4c-0.4-1-1.5-6-3.2-15.2h-0.2c-0.9,3.4-2.8,8.6-5.8,15.6c-0.7,1.1-1.1,2.6-1.1,4.6
			c-0.5,0.4-1.1,2.1-1.7,4.9l-1.7,1.6c0,0.1-0.3,0.3-0.9,0.6c-2.4,4.1-4,6.4-5,6.8l4.9-8.8l-5.2,8.9c1.9-5,2.9-7.6,2.9-7.9h-0.4
			c0,0.6-1.2,3-3.6,7.3l-1.1-0.3l-0.7-0.7c0.7-4,1.1-6.7,1.1-8.1c0-0.7,0.7-4.1,2.1-10.1c0-6.3,3.9-19.9,11.8-40.8
			c0.7-1.1,1.7-1.6,2.8-1.6c0,0.2,0.4,0.4,1.3,0.7c0.9-3,1.7-4.5,2.4-4.5h0.7v0.3c0.3,0,0.4-0.2,0.4-0.6h1.5c0,0.3,0.5,0.6,1.5,0.9
			c0-0.1,0.1-0.2,0.2-0.2c1.4,0.5,2.1,1.8,2.1,3.9v9.8c0,2.5,0.1,4.6,0.2,6.2c-0.1,1.1-0.2,3-0.2,5.8v5.9c0.3-0.1,2.6-3.3,6.9-9.6
			c3-3.8,7.3-8.7,12.9-14.9h0.2l-1.1,1.6v0.2h0.2c1.4-2.2,2.6-4.9,3.5-8.1c0.2-0.5,0.4-0.7,0.6-0.7c0.2,0.1,0.5,0.2,1.1,0.2
			c0.1-0.4,0.3-0.6,0.7-0.6c1.3,0.3,1.9,0.7,1.9,1h0.7c1.9,0.3,2.8,0.7,2.8,1.1c0.2,0,0.4,0.1,0.6,0.4c0,0.1-0.1,0.1-0.2,0.1
			l0.2,0.7c0,1.1-2.3,7.5-6.9,18.9c-3.1,7.2-5.3,13.6-6.7,19.1c-0.2,0.9-0.4,1.7-0.6,2.5c-0.3,1.3-0.5,2.5-0.6,3.6
			c-0.1,0.9-0.2,1.8-0.3,2.7c0,0,0,0,0.1,0s0.1,0.1,0.1,0.4c0,0.2,0,0.6-0.1,1.2c-0.2,1.7-0.9,4.6-2,8.9H156v-0.6h-0.2v0.6h-0.4
			c-1.2,3.5-2.3,5.3-3.5,5.5l-1.1,0.6l2.8-5.7l-3.8,8.9l3.4-9.2H153v0.4h-0.2c-0.2,0-0.4,0.2-0.8,0.7c-0.5,0.8-1.2,2.2-2.2,4.1
			l0.7-3.2l0.2-1.1l0.4-1.7l0.1-0.5v0.4l-0.2,1.1l-0.2,1.2l-0.5,3.4l-0.5,3.9l-1-0.1l-1.1-0.2l0.8-1.8l-1.1,1.4l0.8-0.5H148
			c-0.1,0-0.2-0.1-0.3-0.2c-0.1-0.2-0.1-0.5-0.1-1v-0.5C147.7,70.9,147.8,70.6,147.8,70.1z M141.5,34.8v0.7c0.1,0.9,0.2,1.4,0.2,1.6
			h0.2v-0.7c-0.1-0.8-0.2-1.4-0.2-1.6H141.5z"/>
		<path class="st1" d="M216.4,9.6c8.3,0.3,13.4,0.4,15.1,0.4l1.6,0.2v0.4h-1.2v0.2h1.4v0.4c-4.5,2.1-13.6,5.1-27.2,8.8
			c-2.7,0.2-4,0.8-4,2c0,0.2-0.9,2-2.6,5.4h0.2l1.4-0.2h1.4l7.2,2v0.2l-0.2,0.4h0.5v0.4c-6.4,2.9-10,4.4-10.7,4.4
			c-3,0-4.5,0.6-4.5,1.8l-8.4,17.4h0.2c4.5-2.1,13.5-5,27-8.8v0.4c-0.8,0.1-1.2,0.3-1.2,0.6l1.2-0.2h0.2V46
			c-1.5,1.7-5.3,4.1-11.4,7.2c-6.6,4.3-12.7,7.7-18.4,10.2c-8.3,3.8-14,6.8-17.2,9c0,0.2-0.6,0.6-1.9,1.2h-0.2c-0.6-0.2-1-0.6-1-1.2
			l-2.1,0.4c-0.7-0.6-1.2-2-1.7-4c-0.3,0-0.5-0.2-0.5-0.6c1.1-2.8,10.4-18,28-45.4c0-0.2,0.5-1.3,1.6-3c-0.6,0-0.9-0.1-0.9-0.2
			c-0.3,0.1-0.5,0.2-0.7,0.2c-0.9,0-2.4,0.1-4.5,0.2c-1.6-0.5-2.4-0.9-2.4-1.2v-0.6h0.5c0-0.2-0.5-0.4-1.4-0.8
			c0-0.1,0.1-0.2,0.2-0.2l-0.2-1c0-0.5,0.4-1.1,1.2-1.8c1.5-0.8,3.2-1.4,5.3-1.8c1,0,10.8-1,29.4-3C215.5,9.6,216.4,9.6,216.4,9.6z"
			/>
	</g>
	<g>
		<path class="st1" d="M35.5,85.7c0.2,0,0.2,0.1,0.2,0.2V86l0.3-0.1h0.5c1.9,0.2,4,0.3,6.1,0.3c0.7,0,1.3,0,2,0
			c-3.1,9.5-6.2,21.1-9.2,34.8l-2.5,12h-0.3v-0.1c0-0.1,0.1-0.6,0.2-1.5h-0.3v0.8l-0.2,0.9H32c-0.4-1-0.6-2.3-0.7-3.7
			c-0.5-1.7-0.7-2.9-0.7-3.4c0-0.1,0-0.1,0-0.2c-0.3-0.5-0.4-1-0.4-1.7c0-0.4,0.1-0.9,0.2-1.5h-0.2l-0.5,2.1h-0.3
			c-0.1-0.3-0.3-0.4-0.5-0.4c-0.8,0-2.5,1.4-5,4.1c2.8-11.8,4.6-19.3,5.3-22.4H29c-2.7,5.6-4.4,9.1-5.3,10.4c-0.1,0-0.4,0.2-1,0.7
			L22,117c0,0.1-0.2,0.2-0.5,0.3c-0.2,0-0.3-0.1-0.3-0.2V117l-0.3,0.1l-0.3-0.1c0,0.1-0.3,0.3-0.8,0.4l-0.4-0.2h-0.2l-0.3,0.6
			l-0.2,0.7c0,0.2-0.1,0.2-0.3,0.2h-0.2l0.1-1.3h-0.2l-0.3,1.4h-0.3c-0.4-0.8-0.9-3.8-1.5-9c0-0.5-0.1-0.9-0.1-1.1v-0.1h-0.2
			l-5.1,11.7c-1.4,0.2-2.2,0.7-2.4,1.6c-0.1,0.5-0.6,0.9-1.6,1.2V123c0-0.1-0.1-0.2-0.3-0.2c-0.6,0.3-1.1,0.4-1.2,0.4
			c-0.9-0.6-1.4-0.9-1.6-0.9l-0.6,0.2c-0.1-0.4-0.2-0.7-0.3-0.7c0,0.1-0.2,0.2-0.5,0.3l0,0c0-0.2-0.2-0.5-0.7-0.9v-0.1
			c0-0.2,0.2-0.2,0.5-0.2v-0.1c-0.3-0.4-0.4-0.5-0.5-0.5c0.5-1.8,1.1-3.2,1.6-4.3l0,0c0-0.1,0-0.1-0.1-0.1c3-7,5.7-12.2,8.1-15.6
			c2.4-6,4.5-10,6.2-12.1c0.5-0.9,0.9-1.3,1.1-1.3c0.1,0.1,0.1,0.2,0.1,0.3v0.1h0.1l0.1-0.4h0.2c0.4,0.3,0.6,0.4,0.6,0.4h0.7v0.1H21
			l0.5-0.2c1.4,0.5,2.1,1.6,2.1,3.4c0,0.6-0.1,1.3-0.3,2.1c-0.6,5.7-0.8,9.3-0.8,10.7v0.2h0.1c4.7-8.5,8.1-13.7,10.1-15.9
			c0.6-1.2,1.2-1.8,2-1.8C35.2,85.8,35.5,85.7,35.5,85.7z"/>
		<path class="st1" d="M67.9,84.2c0,0.2,0.2,0.2,0.4,0.2c0.2-0.1,0.4-0.1,0.5-0.1c1.2,0.8,1.8,2,1.8,3.8v0.3
			c-1.4,10.2-2.2,16.5-2.2,18.8c1.4-0.3,2.3-0.5,2.5-0.5c0,0.1-0.4,0.3-1.1,0.6H70c0.5-0.2,0.9-0.2,1.2-0.2
			c-0.3,0.3-1.4,0.9-3.2,1.8c-0.2,2.3-0.3,3.9-0.3,4.6h-0.2c0,0.1,0.1,0.1,0.2,0.1c-1.6,10.8-2.3,16.5-2.3,16.9H65v-0.2
			c0-0.4,0-1-0.1-1.7h-0.2l-0.1,1.9h-0.4v-0.4c-0.3,0-0.5,0.7-0.6,2h-0.4l-0.1-1.4h-0.2l-0.1,1.3h-0.4c-0.6-0.8-1.1-2.1-1.6-3.9
			h-0.2v0.4h-0.3l0.1-1.8h-0.2l-0.2,1.4v0.1h-0.4c-0.5-1.1-0.7-2.8-0.7-5.1c0-0.4,0-0.9,0-1.3h-0.4v0.3h-0.4l0.2-0.8l0.1-1h-0.2
			c0,0.2-0.2,0.7-0.4,1.6h-0.4v-0.3c0-0.4-0.1-0.8-0.3-1.3c0.4-4.1,0.6-6.4,0.6-7c-4.6,2.3-8,3.6-10.2,3.7c-2.1,2.8-4,4.7-5.7,5.8
			l-2.1-0.1H39l-0.4,0.1c-0.1-0.1-0.2-0.3-0.2-0.5l-0.4,0.1c-1.1-1-1.7-1.7-1.7-2.2v-0.4c0.1-2.5,5.3-9.7,15.5-21.4
			c0.7-0.9,3.7-4.3,9.1-10.1c0.1-1.8,1.2-2.7,3.3-2.7l0.2,0.2L64.2,86h0.7c0-0.7,0.5-1.2,1.3-1.6c0.2,0.1,0.4,0.1,0.5,0.1
			C67.2,84.5,67.4,84.4,67.9,84.2z M59.9,100.6c0,0.5-2.2,3.7-6.7,9.7c1.8-0.6,3.5-1.1,5.3-1.4v-0.1L59.9,100.6L59.9,100.6
			L59.9,100.6L59.9,100.6z M60.8,89.5c0,0.1-0.3,0.5-0.8,1.2v0.1h0.2c0-0.2,0.2-0.5,0.7-0.9v-0.5h-0.1V89.5z"/>
		<path class="st1" d="M103,86.1v0.3l-1.3,0.4V87h0.4c0.3-0.2,0.6-0.3,0.9-0.3V87c-0.6,0.6-2.5,1.9-5.5,4l-1.6,1.5
			c0.1,0,0.1,0,0.1,0.1c-0.5,0.3-0.8,0.4-1,0.4l0,0h0.1c0.5-0.1,0.8-0.1,1-0.1c-1,1.1-3.6,3.3-7.8,6.5c-1.2,0.7-2.3,1.5-3.4,2.4
			c1.5,0,5.1,1.1,10.9,3.3c2,0.7,3,1.4,3,2.1c0.1,0,0.2,0.1,0.3,0.4C99,107.8,99,108,99,108c0.2,0,0.3,0.1,0.3,0.3v0.1
			c0,0.1-0.1,0.2-0.4,0.4c0.2,0.3,0.3,0.5,0.3,0.8l-0.5,0.3l0.1,0.3v0.1c-1.8,2.2-4.2,4.3-7.3,6.4c-3,2.1-6.5,4.1-10.7,6.1
			c-0.8,0.7-2.7,1.8-5.8,3.3c-3.7,2.2-5.8,3.3-6.2,3.3c0-0.2,0.4-0.5,1.3-0.9v-0.1H70c-0.6,0.3-1.1,0.6-1.4,0.8h-0.1V129
			c0-0.4,1.5-2,4.6-4.8H73c-1.6,0.7-2.6,1.1-2.9,1.1c0-0.2,0.5-0.5,1.4-0.9v-0.1h-0.1c-0.7,0.4-1.1,0.5-1.4,0.5h-0.1
			c0.7-0.9,2.7-2.8,6-5.6c1.2-1.3,4.2-4.1,9-8.3l2.1-2.4v-0.1h-0.1c-3.6-0.7-5.8-1.1-6.7-1.1c-1.2,0.1-2.3,0.1-3.4,0.1
			c-2.4,0-3.8-0.4-4.3-1.3c-0.2,0-0.6-0.3-1.1-0.8c0,0.2-0.1,0.3-0.3,0.3c-0.2-0.2-0.3-0.4-0.3-0.5h-0.1v0.1
			c0.1,0.2,0.1,0.4,0.1,0.6h-0.1c-0.8-0.5-1.3-1.2-1.3-2.1c0-3.7,2.8-7.1,8.5-10.3c7-4.1,11.7-6.1,14-6.1h0.4c0.5,0,1.5,0.1,2.9,0.3
			C97.7,87.2,100.3,86.7,103,86.1z"/>
		<path class="st1" d="M119.3,79.3c1,0,1.8,0.9,2.2,2.6c-0.2,0.6-0.3,1.2-0.3,1.7c1.5,0.6,2.2,1.5,2.2,2.6v0.1
			c-0.1,0.4-0.1,0.8-0.1,0.9l6.7-0.5V87l-2.2,0.4v0.1h0.2l2.2-0.3v0.3c-0.1,0-0.5,0.1-1.1,0.4V88c1.7,0,4.7-0.2,8.8-0.6v0.4h1v0.1
			c0,0.3-1.7,1-5.1,1.9c-0.9,0.4-1.5,0.6-1.8,0.6v0.1h0.3c0.2,0,1.2-0.1,3-0.3v0.3l-1.9,0.4V91h0.2l1.8-0.2V91
			c-1.3,0.8-5.5,2.3-12.7,4.5c-1.4,0.2-2.1,0.5-2.1,1.1c-3.3,11.3-5.8,18.8-7.5,22.3c-0.9,1.7-2.3,4.7-4.2,9.1h-0.3
			c0-0.2,0.1-0.3,0.2-0.5v-0.1h-0.2l-0.2,0.6h-0.3l-0.2-0.8v-1.7c-0.1,0-0.2,0-0.2,0.1c-0.8-0.1-1.3-0.2-1.5-0.2
			c-1.7,3.1-2.8,4.9-3.3,5.6v-0.2c0.4-1,0.6-1.6,0.6-1.7V129h-0.2c-0.5,1.1-0.8,1.7-0.8,1.8h-0.3v-1.3c2.1-10,4.2-18,6.4-24.2
			c0.7-2.7,1.4-5.2,2.1-7.5c-0.1,0-0.2,0-0.2-0.1l-0.7,0.1h-3.5c-0.4,0-2.7,0.4-6.7,1.1h-1.2c-0.5-0.5-0.9-0.7-1.2-0.7v-0.3l0.2-0.2
			l-0.9-1c-0.5,0-0.8-0.4-0.8-1.1h0.2c0.3,0,0.5-0.1,0.5-0.2l-0.2-0.7c0-0.2,0.4-0.5,1.3-0.8c0-0.4,0.5-0.6,1.5-0.7
			c0-0.1,0.5-0.3,1.4-0.4c0-0.2-0.2-0.5-0.5-0.8c0-0.1,0.2-0.2,0.7-0.5l-0.2-0.2c0.1-0.5,0.6-0.8,1.5-1.1c0-0.3,1.5-0.6,4.6-1
			c4.3-0.8,6.6-1.3,6.9-1.4c0-2.5,0.5-3.8,1.5-3.9c0.8-2.8,1.4-4.3,1.8-4.4c0.4,0.1,0.8,0.1,1,0.1C118.2,79.4,118.6,79.3,119.3,79.3
			z"/>
		<path class="st1" d="M147.3,85.1c1,0,2,0.3,3,0.8c4.3-0.4,8-0.6,11-0.7c4.6,0.2,8.5,0.3,11.5,0.3v0.2l-1.6,0.1v0.1h1.8
			c-0.3,0.3-1.4,0.7-3.4,1.1c-1.1,0.4-2.5,0.7-4.1,1v0.1l5.5,0.3l0.1,0.2h-1.3c-0.2,0-0.3,0.1-0.3,0.2l0,0h1.6l0.1,0.2
			c-1.5,0.5-5.9,1.1-13.3,2c-2.1,0.1-3.8,0.1-5.3,0.1l-0.3,0.1c-0.2-0.1-0.4-0.1-0.7-0.1h-1.5c-0.2,0.1-0.5,0.7-1,1.7
			c0,0.1,0.4,0.4,1.2,1c-0.2,0.1-0.4,0.1-0.5,0.1V94l0.6,0.4c-1.4,4-2,6.2-2,6.4l0,0l2.5-0.2v0.1c0.5-0.1,1.5-0.2,2.9-0.2h0.8
			c0.6,0,3.5,0.3,8.5,0.9h0.2l0.1,0.2c-0.1,0-0.4,0-1,0.1v0.1h1.2v0.2c-2.4,0.5-4,0.9-4.7,1.4c-1.3,0.2-2.6,0.5-4.1,0.8v0.1h0.3v0.1
			c-3.4,1.6-6.2,2.4-8.3,2.4c-0.8,4.3-2,8.2-3.7,11.5v0.2c1.8-0.2,3.4-0.3,4.9-0.3c6,0.1,9.6,0.2,10.6,0.2h1.5l0.1,0.2
			c-0.2,0-0.7,0-1.6,0.1v0.1h1.3v0.1l0,0c0,0.1-0.2,0.2-0.5,0.2v0.1l1,0.1v0.2h-0.2c-0.1,0-0.7,0-1.6,0.1v0.1c1.6,0,3.2,0,4.7,0.1
			v0.2c-0.9,0.1-1.5,0.1-1.6,0.1v0.1h1.7v0.2c-1.5,0.4-4.4,0.9-8.6,1.5c-0.2,0.2-2.7,0.8-7.5,1.8c-1.2,0.6-5.2,1.2-11.9,1.8
			c-0.9,0-1.4,0.2-1.4,0.5v0.1c-0.1,0.3-0.2,0.4-0.4,0.4h-0.2l-0.1-0.5h-0.2l-0.1,0.5h-0.3c-0.4-0.5-0.7-0.9-0.7-1.1l-0.2-0.7
			l-0.4-0.3v-0.1l0.1-0.2c-0.8,0-1.6-0.3-2.4-1c-0.2,0-0.3-0.1-0.6-0.3v-0.2v-0.1c0-0.4,0.4-0.9,1.3-1.5c0.5-0.7,1.2-1.1,2-1.4
			c1.1-3.8,2.2-8.2,3.2-13.1c2-5.5,4.2-10.9,6.7-16.2h-0.2c-0.7-0.1-1.1-0.3-1.1-0.4l0.1-0.5c-0.4,0-0.7-0.1-0.7-0.3V89
			c0-0.3,0.2-0.6,0.5-1c-0.1-0.1-0.2-0.2-0.2-0.4h0.5l-0.2-0.2v-0.2c0.8-0.8,2.4-1.2,4.7-1.2c0.3-0.5,0.8-0.8,1.5-0.8
			c0,0.1,0.1,0.1,0.2,0.1C147,85.2,147.1,85.1,147.3,85.1z M139.5,117.7L139.5,117.7c0,0.3-0.2,0.6-0.5,1h0.5c0.2,0,0.3-0.1,0.3-0.2
			l0,0l-0.2-0.8H139.5z"/>
		<path class="st1" d="M174.5,79.9l1.5,0.3c0.2,0,0.3,0.1,0.4,0.1c0.1,0,0.2,0,0.3,0l0.3,0.2c0.1,0,0.2,0,0.3,0s0.2,0,0.2,0
			l-0.1,0.1l3.1,0.3c11.6,2.2,20.5,5.6,26.7,10.2c0.4,1,0.7,1.8,0.7,2.4c0,0.2,0,0.3-0.1,0.5c-0.6,2.1-2.5,3.6-5.8,4.5
			c-1.1,1.4-5.2,2.9-12.3,4.7l9.6,12.2c3.1,3.5,5.3,8.1,6.7,13.9c0,0.1-0.1,0.2-0.2,0.2c-0.5,0-2.6-3.1-6.2-9.3l6.9,13.8l-3.2-2.5
			c0.1,0.2,0.2,0.4,0.2,0.5v0.1L203,132c-0.7-0.4-5.1-4.6-13.2-12.6c-3-3.7-6.2-8.1-9.7-13.4h-0.2c-2.2,8-4.8,15-7.9,20.9
			c-0.6,1.1-1.6,3.5-3.1,7.2l-0.3-0.1l0.7-2.5l-0.2-0.1l-0.5,1.2l-0.3,1l-0.2-0.1c-0.9-0.2-1.6-1.9-2-5.1c0-1.5,0.4-2.8,1.3-4
			l0.9-1.6c0-1-0.1-1.5-0.1-1.5s-0.1,0.1-0.1,0.2v-0.1c-0.2,0-1.3,2.9-3.3,8.6c0.8-3.2,1.2-5,1.2-5.4v-0.1c0,0,0,0-0.1,0.1l-0.8-1.7
			c2.6-7.1,3.9-10.8,4-11.1l0.2-0.5l-0.2-0.1c-0.9,2.8-1.9,5.9-3.2,9.1l-1.2,2.2c-0.4,0.4-0.6,0.7-0.8,0.7c-0.1,0-0.2-0.1-0.2-0.3
			c0-1.1,1.3-4.7,4-11c0.8-2.9,1.6-6.8,2.6-11.9c0.5-1.9,1-3.3,1.5-4v-0.1c0,0,0-0.1-0.1-0.1c1.5-2.9,2.8-6.3,3.9-10.2
			c-2.1-0.6-4.3-2.2-6.8-4.6l4-1.4C173.2,79.6,173.8,79.7,174.5,79.9z M187.9,88.7L187.9,88.7c0.9,0.2,1.3,0.3,1.4,0.3v0.1
			c-0.1,0-0.7,0-1.9-0.1l-1.8-0.2h-0.3v0.3c0,0.2,0,0.3,0,0.5l-1.5,4.6c-0.1,0-0.1,0-0.1,0h0.1c4.7-0.4,7.5-0.8,8.4-1.3
			c3.1-0.7,4.7-1.3,4.7-1.7L197,91c-2.3-1-5.2-1.8-8.8-2.4L187.9,88.7z"/>
	</g>
</g>
<g>
	<g>
		
			<linearGradient id="SVGID_1_" gradientUnits="userSpaceOnUse" x1="7.3" y1="100.15" x2="66.3" y2="100.15" gradientTransform="matrix(1 0 0 -1 0 136)">
			<stop  offset="0" style="stop-color:#FFF33B"/>
			<stop  offset="5.948725e-02" style="stop-color:#FFE029"/>
			<stop  offset="0.1303" style="stop-color:#FFD218"/>
			<stop  offset="0.2032" style="stop-color:#FEC90F"/>
			<stop  offset="0.2809" style="stop-color:#FDC70C"/>
			<stop  offset="0.6685" style="stop-color:#F3903F"/>
			<stop  offset="0.8876" style="stop-color:#ED683C"/>
			<stop  offset="1" style="stop-color:#E93E3A"/>
		</linearGradient>
		<path class="st2" d="M40.7,66.3c0.2-1.8,0.7-4.4,1.6-7.9l-8.1,13.4c1-2.5,1.5-4.6,1.5-6.2s-0.5-2.7-1.5-3.4c1.5,1,2.2,1.5,2.2,1.6
			c0,0,0,0-0.1,0v0.3h-0.4c-1.7,2.1-2.8,3.1-3.3,3.1c-0.2,0-0.2-0.1-0.2-0.4c0-0.8,0.7-2.6,2.1-5.6c0.6-4.2,3.5-13.1,8.8-26.5v-0.2
			H43c-1.5,2.9-4.6,6.4-9.5,10.4c-1.5,0.5-2.2,0.7-2.2,0.9v1.4h-0.4v-1.6h-0.2c-0.1,0.5-0.2,0.9-0.2,1.1h-0.4c-0.4-1-1.5-6-3.2-15.2
			h-0.2c-0.9,3.4-2.8,8.6-5.8,15.6c-0.7,1.1-1.1,2.6-1.1,4.6c-0.5,0.4-1.1,2.1-1.7,4.9l-1.7,1.6c0,0.1-0.3,0.3-0.9,0.6
			c-2.4,4.1-4,6.4-5,6.8l4.9-8.8l-5.2,8.9c1.9-5,2.9-7.6,2.9-7.9h-0.4c0,0.6-1.2,3-3.6,7.3L8,65.3l-0.7-0.7c0.7-4,1.1-6.7,1.1-8.1
			c0-0.7,0.7-4.1,2.1-10.1c0-6.3,3.9-19.9,11.8-40.8C23.1,4.6,24,4,25.1,4c0,0.2,0.4,0.4,1.3,0.7c0.9-3,1.7-4.5,2.4-4.5h0.7v0.3
			c0.3,0,0.4-0.2,0.4-0.6h1.5c0,0.3,0.5,0.6,1.5,0.9c0-0.1,0.1-0.2,0.2-0.2c1.4,0.5,2.1,1.8,2.1,3.9v9.8c0,2.5,0.1,4.6,0.2,6.2
			c-0.1,1.1-0.2,3-0.2,5.8v5.9c0.3-0.1,2.6-3.3,6.9-9.6c3-3.8,7.3-8.7,12.9-14.9h0.2l-1.1,1.6v0.2h0.2c1.4-2.2,2.6-4.9,3.5-8.1
			c0.2-0.5,0.4-0.7,0.6-0.7C58.7,1,59,1,59.6,1c0.1-0.4,0.3-0.6,0.7-0.6c1.3,0.3,1.9,0.7,1.9,1h0.7c1.9,0.3,2.8,0.7,2.8,1.1
			c0.2,0,0.4,0.1,0.6,0.4C66.3,3,66.2,3,66.1,3l0.2,0.7c0,1.1-2.3,7.5-6.9,18.9c-3.1,7.2-5.3,13.6-6.7,19.1
			c-0.2,0.9-0.4,1.7-0.6,2.5c-0.3,1.3-0.5,2.5-0.6,3.6c-0.1,0.9-0.2,1.8-0.3,2.7c0,0,0,0,0.1,0s0.1,0.1,0.1,0.4c0,0.2,0,0.6-0.1,1.2
			c-0.2,1.7-0.9,4.6-2,8.9h-0.4v-0.6h-0.2V61h-0.4c-1.2,3.5-2.3,5.3-3.5,5.5l-1.1,0.6l2.8-5.7l-3.8,8.9l3.4-9.2h-0.2v0.4h-0.2
			c-0.2,0-0.4,0.2-0.8,0.7c-0.5,0.8-1.2,2.2-2.2,4.1l0.7-3.2l0.2-1.1l0.4-1.7l0.1-0.5v0.4l-0.2,1.1L43.7,63l-0.5,3.4l-0.5,3.9
			l-1-0.1L40.6,70l0.8-1.8l-1.1,1.4l0.8-0.5h-0.2c-0.1,0-0.2-0.1-0.3-0.2c-0.1-0.2-0.1-0.5-0.1-1v-0.5
			C40.6,67.1,40.7,66.7,40.7,66.3z M34.4,31v0.7c0.1,0.9,0.2,1.4,0.2,1.6h0.2v-0.7c-0.1-0.8-0.2-1.4-0.2-1.6
			C34.6,31,34.4,31,34.4,31z"/>
		
			<linearGradient id="SVGID_2_" gradientUnits="userSpaceOnUse" x1="52.1" y1="98.2" x2="126.2" y2="98.2" gradientTransform="matrix(1 0 0 -1 0 136)">
			<stop  offset="0" style="stop-color:#FFF33B"/>
			<stop  offset="5.948725e-02" style="stop-color:#FFE029"/>
			<stop  offset="0.1303" style="stop-color:#FFD218"/>
			<stop  offset="0.2032" style="stop-color:#FEC90F"/>
			<stop  offset="0.2809" style="stop-color:#FDC70C"/>
			<stop  offset="0.6685" style="stop-color:#F3903F"/>
			<stop  offset="0.8876" style="stop-color:#ED683C"/>
			<stop  offset="1" style="stop-color:#E93E3A"/>
		</linearGradient>
		<path class="st3" d="M109.3,5.8c8.3,0.3,13.4,0.4,15.1,0.4l1.6,0.2v0.4h-1.2V7h1.4v0.4c-4.5,2.1-13.6,5.1-27.2,8.8
			c-2.7,0.2-4,0.8-4,2c0,0.2-0.9,2-2.6,5.4h0.2l1.4-0.2h1.4l7.2,2v0.2l-0.2,0.4h0.5v0.4c-6.4,2.9-10,4.4-10.7,4.4
			c-3,0-4.5,0.6-4.5,1.8L79.2,50h0.2c4.5-2.1,13.5-5,27-8.8v0.4c-0.8,0.1-1.2,0.3-1.2,0.6l1.2-0.2h0.2v0.2
			c-1.5,1.7-5.3,4.1-11.4,7.2c-6.6,4.3-12.7,7.7-18.4,10.2c-8.3,3.8-14,6.8-17.2,9c0,0.2-0.6,0.6-1.9,1.2h-0.2c-0.6-0.2-1-0.6-1-1.2
			L54.3,69c-0.7-0.6-1.2-2-1.7-4c-0.3,0-0.5-0.2-0.5-0.6c1.1-2.8,10.4-18,28-45.4c0-0.2,0.5-1.3,1.6-3c-0.6,0-0.9-0.1-0.9-0.2
			c-0.3,0.1-0.5,0.2-0.7,0.2c-0.9,0-2.4,0.1-4.5,0.2c-1.6-0.5-2.4-0.9-2.4-1.2v-0.6h0.5c0-0.2-0.5-0.4-1.4-0.8
			c0-0.1,0.1-0.2,0.2-0.2l-0.2-1c0-0.5,0.4-1.1,1.2-1.8c1.5-0.8,3.2-1.4,5.3-1.8c1,0,10.8-1,29.4-3H109.3z"/>
		
			<linearGradient id="SVGID_3_" gradientUnits="userSpaceOnUse" x1="112.3071" y1="100.4" x2="171.2729" y2="100.4" gradientTransform="matrix(1 0 0 -1 0 136)">
			<stop  offset="0" style="stop-color:#FFF33B"/>
			<stop  offset="5.948725e-02" style="stop-color:#FFE029"/>
			<stop  offset="0.1303" style="stop-color:#FFD218"/>
			<stop  offset="0.2032" style="stop-color:#FEC90F"/>
			<stop  offset="0.2809" style="stop-color:#FDC70C"/>
			<stop  offset="0.6685" style="stop-color:#F3903F"/>
			<stop  offset="0.8876" style="stop-color:#ED683C"/>
			<stop  offset="1" style="stop-color:#E93E3A"/>
		</linearGradient>
		<path class="st4" d="M145.8,66.3c0.2-1.8,0.7-4.4,1.6-7.9l-8.1,13.4c1-2.5,1.5-4.6,1.5-6.2s-0.5-2.7-1.5-3.4
			c1.5,1,2.2,1.5,2.2,1.6c0,0,0,0-0.1,0v0.3H141c-1.7,2.1-2.8,3.1-3.3,3.1c-0.2,0-0.2-0.1-0.2-0.4c0-0.8,0.7-2.6,2.1-5.6
			c0.6-4.2,3.5-13.1,8.8-26.5v-0.2H148c-1.5,2.9-4.6,6.4-9.5,10.4c-1.5,0.5-2.2,0.7-2.2,0.9v1.4H136v-1.6h-0.2
			c-0.1,0.5-0.2,0.9-0.2,1.1h-0.4c-0.4-1-1.5-6-3.2-15.2h-0.2c-0.9,3.4-2.8,8.6-5.8,15.6c-0.7,1.1-1.1,2.6-1.1,4.6
			c-0.5,0.4-1.1,2.1-1.7,4.9l-1.7,1.6c0,0.1-0.3,0.3-0.9,0.6c-2.4,4.1-4,6.4-5,6.8l4.9-8.8l-5.2,8.9c1.9-5,2.9-7.6,2.9-7.9h-0.4
			c0,0.6-1.2,3-3.6,7.3l-1.1-0.3l-0.7-0.7c0.7-4,1.1-6.7,1.1-8.1c0-0.7,0.7-4.1,2.1-10.1c0-6.3,3.9-19.9,11.8-40.8
			c0.7-1.1,1.7-1.6,2.8-1.6c0,0.2,0.4,0.4,1.3,0.7c0.9-3,1.7-4.5,2.4-4.5h0.7V0c0.3,0,0.4-0.2,0.4-0.6h1.5c0,0.3,0.5,0.6,1.5,0.9
			c0-0.1,0.1-0.2,0.2-0.2c1.4,0.5,2.1,1.8,2.1,3.9v9.8c0,2.5,0.1,4.6,0.2,6.2c-0.1,1.1-0.2,3-0.2,5.8v5.9c0.3-0.1,2.6-3.3,6.9-9.6
			c3-3.8,7.3-8.7,12.9-14.9h0.2l-1.1,1.6V9h0.2c1.4-2.2,2.6-4.9,3.5-8.1c0.2-0.5,0.4-0.7,0.6-0.7c0.2,0.1,0.5,0.2,1.1,0.2
			c0.1-0.4,0.3-0.6,0.7-0.6c1.3,0.3,1.9,0.7,1.9,1h0.7c1.9,0.3,2.8,0.7,2.8,1.1c0.2,0,0.4,0.1,0.6,0.4c0,0.1-0.1,0.1-0.2,0.1
			l0.2,0.7c0,1.1-2.3,7.5-6.9,18.9c-3.1,7.2-5.3,13.6-6.7,19.1c-0.2,0.9-0.4,1.7-0.6,2.5c-0.3,1.3-0.5,2.5-0.6,3.6
			c-0.1,0.9-0.2,1.8-0.3,2.7c0,0,0,0,0.1,0s0.1,0.1,0.1,0.4c0,0.2,0,0.6-0.1,1.2c-0.2,1.7-0.9,4.6-2,8.9h-0.4v-0.6h-0.2v0.6h-0.4
			c-1.2,3.5-2.3,5.3-3.5,5.5l-1.1,0.6l2.8-5.7l-3.8,8.9l3.4-9.2h-0.2v0.4h-0.2c-0.2,0-0.4,0.2-0.8,0.7c-0.5,0.8-1.2,2.2-2.2,4.1
			l0.7-3.2l0.2-1.1l0.4-1.7l0.1-0.5v0.4l-0.2,1.1l-0.2,1.2l-0.5,3.4l-0.5,3.9l-1-0.1l-1.1-0.2l0.8-1.8l-1.1,1.4l0.8-0.5h-0.2
			c-0.1,0-0.2-0.1-0.3-0.2c-0.1-0.2-0.1-0.5-0.1-1v-0.5C145.7,67.1,145.7,66.7,145.8,66.3z M139.4,31v0.7c0.1,0.9,0.2,1.4,0.2,1.6
			h0.2v-0.7c-0.1-0.8-0.2-1.4-0.2-1.6C139.6,31,139.4,31,139.4,31z"/>
		
			<linearGradient id="SVGID_4_" gradientUnits="userSpaceOnUse" x1="157.2" y1="98.2" x2="231.2" y2="98.2" gradientTransform="matrix(1 0 0 -1 0 136)">
			<stop  offset="0" style="stop-color:#FFF33B"/>
			<stop  offset="5.948725e-02" style="stop-color:#FFE029"/>
			<stop  offset="0.1303" style="stop-color:#FFD218"/>
			<stop  offset="0.2032" style="stop-color:#FEC90F"/>
			<stop  offset="0.2809" style="stop-color:#FDC70C"/>
			<stop  offset="0.6685" style="stop-color:#F3903F"/>
			<stop  offset="0.8876" style="stop-color:#ED683C"/>
			<stop  offset="1" style="stop-color:#E93E3A"/>
		</linearGradient>
		<path class="st5" d="M214.3,5.8c8.3,0.3,13.4,0.4,15.1,0.4l1.6,0.2v0.4h-1.2V7h1.4v0.4c-4.5,2.1-13.6,5.1-27.2,8.8
			c-2.7,0.2-4,0.8-4,2c0,0.2-0.9,2-2.6,5.4h0.2l1.4-0.2h1.4l7.2,2v0.2l-0.2,0.4h0.5v0.4c-6.4,2.9-10,4.4-10.7,4.4
			c-3,0-4.5,0.6-4.5,1.8L184.2,50h0.2c4.5-2.1,13.5-5,27-8.8v0.4c-0.8,0.1-1.2,0.3-1.2,0.6l1.2-0.2h0.2v0.2
			c-1.5,1.7-5.3,4.1-11.4,7.2c-6.6,4.3-12.7,7.7-18.4,10.2c-8.3,3.8-14,6.8-17.2,9c0,0.2-0.6,0.6-1.9,1.2h-0.2c-0.6-0.2-1-0.6-1-1.2
			l-2.1,0.4c-0.7-0.6-1.2-2-1.7-4c-0.3,0-0.5-0.2-0.5-0.6c1.1-2.8,10.4-18,28-45.4c0-0.2,0.5-1.3,1.6-3c-0.6,0-0.9-0.1-0.9-0.2
			c-0.3,0.1-0.5,0.2-0.7,0.2c-0.9,0-2.4,0.1-4.5,0.2c-1.6-0.5-2.4-0.9-2.4-1.2v-0.6h0.5c0-0.2-0.5-0.4-1.4-0.8
			c0-0.1,0.1-0.2,0.2-0.2l-0.2-1c0-0.5,0.4-1.1,1.2-1.8c1.5-0.8,3.2-1.4,5.3-1.8c1,0,10.8-1,29.4-3C213.3,5.8,214.3,5.8,214.3,5.8z"
			/>
	</g>
	<g>
		
			<linearGradient id="SVGID_5_" gradientUnits="userSpaceOnUse" x1="0" y1="30.5" x2="42.5522" y2="30.5" gradientTransform="matrix(1 0 0 -1 0 136)">
			<stop  offset="0" style="stop-color:#FFF33B"/>
			<stop  offset="5.948725e-02" style="stop-color:#FFE029"/>
			<stop  offset="0.1303" style="stop-color:#FFD218"/>
			<stop  offset="0.2032" style="stop-color:#FEC90F"/>
			<stop  offset="0.2809" style="stop-color:#FDC70C"/>
			<stop  offset="0.6685" style="stop-color:#F3903F"/>
			<stop  offset="0.8876" style="stop-color:#ED683C"/>
			<stop  offset="1" style="stop-color:#E93E3A"/>
		</linearGradient>
		<path class="st6" d="M33.5,81.8c0.2,0,0.2,0.1,0.2,0.2v0.1L34,82h0.5c1.9,0.2,4,0.3,6.1,0.3c0.7,0,1.3,0,2,0
			c-3.1,9.5-6.2,21.1-9.2,34.8l-2.5,12h-0.3V129c0-0.1,0.1-0.6,0.2-1.5h-0.3v0.8l-0.2,0.9H30c-0.4-1-0.6-2.3-0.7-3.7
			c-0.5-1.7-0.7-2.9-0.7-3.4c0-0.1,0-0.1,0-0.2c-0.3-0.5-0.4-1-0.4-1.7c0-0.4,0.1-0.9,0.2-1.5h-0.2l-0.5,2.1h-0.3
			c-0.1-0.3-0.3-0.4-0.5-0.4c-0.8,0-2.5,1.4-5,4.1c2.8-11.8,4.6-19.3,5.3-22.4H27c-2.7,5.6-4.4,9.1-5.3,10.4c-0.1,0-0.4,0.2-1,0.7
			l-0.7-0.1c0,0.1-0.2,0.2-0.5,0.3c-0.2,0-0.3-0.1-0.3-0.2v-0.1l-0.3,0.1l-0.3-0.1c0,0.1-0.3,0.3-0.8,0.4l-0.4-0.2h-0.2l-0.3,0.6
			l-0.2,0.7c0,0.2-0.1,0.2-0.3,0.2h-0.2l0.1-1.3h-0.2l-0.3,1.4h-0.3c-0.4-0.8-0.9-3.8-1.5-9c0-0.5-0.1-0.9-0.1-1.1v-0.1h-0.2
			l-5.1,11.7c-1.4,0.2-2.2,0.7-2.4,1.6c-0.1,0.5-0.6,0.9-1.6,1.2v-0.1c0-0.1-0.1-0.2-0.3-0.2c-0.6,0.3-1.1,0.4-1.2,0.4
			c-0.9-0.6-1.4-0.9-1.6-0.9l-0.6,0.2c-0.1-0.4-0.2-0.7-0.3-0.7c0,0.1-0.2,0.2-0.5,0.3l0,0c0-0.2-0.2-0.5-0.7-0.9v-0.1
			c0-0.2,0.2-0.2,0.5-0.2v-0.1c-0.3-0.4-0.4-0.5-0.5-0.5c0.5-1.8,1.1-3.2,1.6-4.3l0,0c0-0.1,0-0.1-0.1-0.1c3-7,5.7-12.2,8.1-15.6
			c2.4-6,4.5-10,6.2-12.1c0.5-0.9,0.9-1.3,1.1-1.3c0.1,0.1,0.1,0.2,0.1,0.3v0.1h0.1l0.1-0.4h0.2c0.4,0.3,0.6,0.4,0.6,0.4h0.7v0.1
			h0.2l0.5-0.2c1.4,0.5,2.1,1.6,2.1,3.4c0,0.6-0.1,1.3-0.3,2.1c-0.6,5.7-0.8,9.3-0.8,10.7v0.2h0.1C24.6,91.2,28,86,30,83.8
			c0.6-1.2,1.2-1.8,2-1.8C33.1,82,33.4,81.8,33.5,81.8z"/>
		
			<linearGradient id="SVGID_6_" gradientUnits="userSpaceOnUse" x1="34.6938" y1="31.65" x2="69.0591" y2="31.65" gradientTransform="matrix(1 0 0 -1 0 136)">
			<stop  offset="0" style="stop-color:#FFF33B"/>
			<stop  offset="5.948725e-02" style="stop-color:#FFE029"/>
			<stop  offset="0.1303" style="stop-color:#FFD218"/>
			<stop  offset="0.2032" style="stop-color:#FEC90F"/>
			<stop  offset="0.2809" style="stop-color:#FDC70C"/>
			<stop  offset="0.6685" style="stop-color:#F3903F"/>
			<stop  offset="0.8876" style="stop-color:#ED683C"/>
			<stop  offset="1" style="stop-color:#E93E3A"/>
		</linearGradient>
		<path class="st7" d="M65.8,80.4c0,0.2,0.2,0.2,0.4,0.2c0.2-0.1,0.4-0.1,0.5-0.1c1.2,0.8,1.8,2,1.8,3.8v0.3
			c-1.4,10.2-2.2,16.5-2.2,18.8c1.4-0.3,2.3-0.5,2.5-0.5c0,0.1-0.4,0.3-1.1,0.6h0.2c0.5-0.2,0.9-0.2,1.2-0.2
			c-0.3,0.3-1.4,0.9-3.2,1.8c-0.2,2.3-0.3,3.9-0.3,4.6h-0.2c0,0.1,0.1,0.1,0.2,0.1c-1.6,10.8-2.3,16.5-2.3,16.9h-0.4v-0.2
			c0-0.4,0-1-0.1-1.7h-0.2l-0.1,1.9h-0.4v-0.4c-0.3,0-0.5,0.7-0.6,2h-0.4L61,127h-0.2l-0.1,1.3h-0.4c-0.6-0.8-1.1-2.1-1.6-3.9h-0.2
			v0.4h-0.3l0.1-1.8h-0.2l-0.2,1.4v0.1h-0.4c-0.5-1.1-0.7-2.8-0.7-5.1c0-0.4,0-0.9,0-1.3h-0.4v0.3H56l0.2-0.8l0.1-1h-0.2
			c0,0.2-0.2,0.7-0.4,1.6h-0.4v-0.3c0-0.4-0.1-0.8-0.3-1.3c0.4-4.1,0.6-6.4,0.6-7c-4.6,2.3-8,3.6-10.2,3.7c-2.1,2.8-4,4.7-5.7,5.8
			l-2.1-0.1h-0.7l-0.4,0.1c-0.1-0.1-0.2-0.3-0.2-0.5l-0.4,0.1c-1.1-1-1.7-1.7-1.7-2.2V116c0.1-2.5,5.3-9.7,15.5-21.4
			c0.7-0.9,3.7-4.3,9.1-10.1c0.1-1.8,1.2-2.7,3.3-2.7l0.2,0.2l-0.2,0.2h0.7c0-0.7,0.5-1.2,1.3-1.6c0.2,0.1,0.4,0.1,0.5,0.1
			C65.1,80.7,65.3,80.6,65.8,80.4z M57.9,96.8c0,0.5-2.2,3.7-6.7,9.7c1.8-0.6,3.5-1.1,5.3-1.4V105L57.9,96.8L57.9,96.8L57.9,96.8
			L57.9,96.8z M58.8,85.7c0,0.1-0.3,0.5-0.8,1.2V87h0.2c0-0.2,0.2-0.5,0.7-0.9v-0.5L58.8,85.7L58.8,85.7z"/>
		
			<linearGradient id="SVGID_7_" gradientUnits="userSpaceOnUse" x1="66.3301" y1="32.15" x2="100.9229" y2="32.15" gradientTransform="matrix(1 0 0 -1 0 136)">
			<stop  offset="0" style="stop-color:#FFF33B"/>
			<stop  offset="5.948725e-02" style="stop-color:#FFE029"/>
			<stop  offset="0.1303" style="stop-color:#FFD218"/>
			<stop  offset="0.2032" style="stop-color:#FEC90F"/>
			<stop  offset="0.2809" style="stop-color:#FDC70C"/>
			<stop  offset="0.6685" style="stop-color:#F3903F"/>
			<stop  offset="0.8876" style="stop-color:#ED683C"/>
			<stop  offset="1" style="stop-color:#E93E3A"/>
		</linearGradient>
		<path class="st8" d="M100.9,82.2v0.3l-1.3,0.4V83h0.4c0.3-0.2,0.6-0.3,0.9-0.3V83c-0.6,0.6-2.5,1.9-5.5,4l-1.6,1.5
			c0.1,0,0.1,0,0.1,0.1c-0.5,0.3-0.8,0.4-1,0.4v0.1H93c0.5-0.1,0.8-0.1,1-0.1c-1,1.1-3.6,3.3-7.8,6.5c-1.2,0.7-2.3,1.5-3.4,2.4
			c1.5,0,5.1,1.1,10.9,3.3c2,0.7,3,1.4,3,2.1c0.1,0,0.2,0.1,0.3,0.4c-0.1,0.2-0.1,0.3-0.1,0.4c0.2,0,0.3,0.1,0.3,0.3v0.1
			c0,0.1-0.1,0.2-0.4,0.4c0.2,0.3,0.3,0.5,0.3,0.8l-0.5,0.3l0.1,0.3v0.1c-1.8,2.2-4.2,4.3-7.3,6.4c-3,2.1-6.5,4.1-10.7,6.1
			c-0.8,0.7-2.7,1.8-5.8,3.3c-3.7,2.2-5.8,3.3-6.2,3.3c0-0.2,0.4-0.5,1.3-0.9v-0.1h-0.1c-0.6,0.3-1.1,0.6-1.4,0.8h-0.1v-0.2
			c0-0.4,1.5-2,4.6-4.8h-0.1c-1.6,0.7-2.6,1.1-2.9,1.1c0-0.2,0.5-0.5,1.4-0.9v-0.1h-0.1c-0.7,0.4-1.1,0.5-1.4,0.5h-0.1
			c0.7-0.9,2.7-2.8,6-5.6c1.2-1.3,4.2-4.1,9-8.3l2.1-2.4v-0.1h-0.1c-3.6-0.7-5.8-1.1-6.7-1.1c-1.2,0.1-2.3,0.1-3.4,0.1
			c-2.4,0-3.8-0.4-4.3-1.3c-0.2,0-0.6-0.3-1.1-0.8c0,0.2-0.1,0.3-0.3,0.3c-0.2-0.2-0.3-0.4-0.3-0.5h-0.1v0.1
			c0.1,0.2,0.1,0.4,0.1,0.6h-0.1c-0.8-0.5-1.3-1.2-1.3-2.1c0-3.7,2.8-7.1,8.5-10.3c7-4.1,11.7-6.1,14-6.1h0.4c0.5,0,1.5,0.1,2.9,0.3
			C95.6,83.3,98.2,82.8,100.9,82.2z"/>
		
			<linearGradient id="SVGID_8_" gradientUnits="userSpaceOnUse" x1="94.0244" y1="34.7" x2="136.9561" y2="34.7" gradientTransform="matrix(1 0 0 -1 0 136)">
			<stop  offset="0" style="stop-color:#FFF33B"/>
			<stop  offset="5.948725e-02" style="stop-color:#FFE029"/>
			<stop  offset="0.1303" style="stop-color:#FFD218"/>
			<stop  offset="0.2032" style="stop-color:#FEC90F"/>
			<stop  offset="0.2809" style="stop-color:#FDC70C"/>
			<stop  offset="0.6685" style="stop-color:#F3903F"/>
			<stop  offset="0.8876" style="stop-color:#ED683C"/>
			<stop  offset="1" style="stop-color:#E93E3A"/>
		</linearGradient>
		<path class="st9" d="M117.2,75.4c1,0,1.8,0.9,2.2,2.6c-0.2,0.6-0.3,1.2-0.3,1.7c1.5,0.6,2.2,1.5,2.2,2.6v0.1
			c-0.1,0.4-0.1,0.8-0.1,0.9l6.7-0.5v0.3l-2.2,0.4v0.1h0.2l2.2-0.3v0.3c-0.1,0-0.5,0.1-1.1,0.4v0.2c1.7,0,4.7-0.2,8.8-0.6V84h1v0.1
			c0,0.3-1.7,1-5.1,1.9c-0.9,0.4-1.5,0.6-1.8,0.6v0.1h0.3c0.2,0,1.2-0.1,3-0.3v0.3l-1.9,0.4v0.1h0.2l1.8-0.2v0.2
			c-1.3,0.8-5.5,2.3-12.7,4.5c-1.4,0.2-2.1,0.5-2.1,1.1c-3.3,11.3-5.8,18.8-7.5,22.3c-0.9,1.7-2.3,4.7-4.2,9.1h-0.3
			c0-0.2,0.1-0.3,0.2-0.5v-0.1h-0.2l-0.2,0.6H106l-0.2-0.8v-1.7c-0.1,0-0.2,0-0.2,0.1c-0.8-0.1-1.3-0.2-1.5-0.2
			c-1.7,3.1-2.8,4.9-3.3,5.6V127c0.4-1,0.6-1.6,0.6-1.7v-0.1h-0.2c-0.5,1.1-0.8,1.7-0.8,1.8h-0.3v-1.3c2.1-10,4.2-18,6.4-24.2
			c0.7-2.7,1.4-5.2,2.1-7.5c-0.1,0-0.2,0-0.2-0.1l-0.7,0.1h-3.5c-0.4,0-2.7,0.4-6.7,1.1h-1.2c-0.5-0.5-0.9-0.7-1.2-0.7V94l0.2-0.2
			l-0.9-1c-0.5,0-0.8-0.4-0.8-1.1h0.2c0.3,0,0.5-0.1,0.5-0.2l-0.2-0.7c0-0.2,0.4-0.5,1.3-0.8c0-0.4,0.5-0.6,1.5-0.7
			c0-0.1,0.5-0.3,1.4-0.4c0-0.2-0.2-0.5-0.5-0.8c0-0.1,0.2-0.2,0.7-0.5l-0.2-0.2c0.1-0.5,0.6-0.8,1.5-1.1c0-0.3,1.5-0.6,4.6-1
			c4.3-0.8,6.6-1.3,6.9-1.4c0-2.5,0.5-3.8,1.5-3.9c0.8-2.8,1.4-4.3,1.8-4.4c0.4,0.1,0.8,0.1,1,0.1C116.2,75.5,116.5,75.4,117.2,75.4
			z"/>
		
			<linearGradient id="SVGID_9_" gradientUnits="userSpaceOnUse" x1="126.6211" y1="34" x2="170.8916" y2="34" gradientTransform="matrix(1 0 0 -1 0 136)">
			<stop  offset="0" style="stop-color:#FFF33B"/>
			<stop  offset="5.948725e-02" style="stop-color:#FFE029"/>
			<stop  offset="0.1303" style="stop-color:#FFD218"/>
			<stop  offset="0.2032" style="stop-color:#FEC90F"/>
			<stop  offset="0.2809" style="stop-color:#FDC70C"/>
			<stop  offset="0.6685" style="stop-color:#F3903F"/>
			<stop  offset="0.8876" style="stop-color:#ED683C"/>
			<stop  offset="1" style="stop-color:#E93E3A"/>
		</linearGradient>
		<path class="st10" d="M145.2,81.3c1,0,2,0.3,3,0.8c4.3-0.4,8-0.6,11-0.7c4.6,0.2,8.5,0.3,11.5,0.3v0.2L169,82v0.1h1.8
			c-0.3,0.3-1.4,0.7-3.4,1.1c-1.1,0.4-2.5,0.7-4.1,1v0.1l5.5,0.3l0.1,0.2h-1.3c-0.2,0-0.3,0.1-0.3,0.2l0,0h1.6l0.1,0.2
			c-1.5,0.5-5.9,1.1-13.3,2c-2.1,0.1-3.8,0.1-5.3,0.1l-0.3,0.1c-0.2-0.1-0.4-0.1-0.7-0.1h-1.5c-0.2,0.1-0.5,0.7-1,1.7
			c0,0.1,0.4,0.4,1.2,1c-0.2,0.1-0.4,0.1-0.5,0.1v0.1l0.6,0.4c-1.4,4-2,6.2-2,6.4l0,0l2.5-0.2v0.1c0.5-0.1,1.5-0.2,2.9-0.2h0.8
			c0.6,0,3.5,0.3,8.5,0.9h0.2l0.1,0.2c-0.1,0-0.4,0-1,0.1V98h1.2v0.2c-2.4,0.5-4,0.9-4.7,1.4c-1.3,0.2-2.6,0.5-4.1,0.8v0.1h0.3v0.1
			c-3.4,1.6-6.2,2.4-8.3,2.4c-0.8,4.3-2,8.2-3.7,11.5v0.2c1.8-0.2,3.4-0.3,4.9-0.3c6,0.1,9.6,0.2,10.6,0.2h1.5l0.1,0.2
			c-0.2,0-0.7,0-1.6,0.1v0.1h1.3v0.1l0,0c0,0.1-0.2,0.2-0.5,0.2v0.1l1,0.1v0.2H158c-0.1,0-0.7,0-1.6,0.1v0.1c1.6,0,3.2,0,4.7,0.1
			v0.2c-0.9,0.1-1.5,0.1-1.6,0.1v0.1h1.7v0.2c-1.5,0.4-4.4,0.9-8.6,1.5c-0.2,0.2-2.7,0.8-7.5,1.8c-1.2,0.6-5.2,1.2-11.9,1.8
			c-0.9,0-1.4,0.2-1.4,0.5v0.1c-0.1,0.3-0.2,0.4-0.4,0.4h-0.2l-0.1-0.5h-0.2l-0.1,0.5h-0.3c-0.4-0.5-0.7-0.9-0.7-1.1l-0.2-0.7
			l-0.4-0.3v-0.1l0.1-0.2c-0.8,0-1.6-0.3-2.4-1c-0.2,0-0.3-0.1-0.6-0.3v-0.2v-0.1c0-0.4,0.4-0.9,1.3-1.5c0.5-0.7,1.2-1.1,2-1.4
			c1.1-3.8,2.2-8.2,3.2-13.1c2-5.5,4.2-10.9,6.7-16.2h-0.2c-0.7-0.1-1.1-0.3-1.1-0.4l0.1-0.5c-0.4,0-0.7-0.1-0.7-0.3v-0.1
			c0-0.3,0.2-0.6,0.5-1c-0.1-0.1-0.2-0.2-0.2-0.4h0.5l-0.2-0.2v-0.2c0.8-0.8,2.4-1.2,4.7-1.2c0.3-0.5,0.8-0.8,1.5-0.8
			c0,0.1,0.1,0.1,0.2,0.1C144.9,81.3,145,81.3,145.2,81.3z M137.4,113.8L137.4,113.8c0,0.3-0.2,0.6-0.5,1h0.5c0.2,0,0.3-0.1,0.3-0.2
			l0,0l-0.2-0.8H137.4z"/>
		
			<linearGradient id="SVGID_10_" gradientUnits="userSpaceOnUse" x1="161.77" y1="33.05" x2="205.97" y2="33.05" gradientTransform="matrix(1 0 0 -1 0 136)">
			<stop  offset="0" style="stop-color:#FFF33B"/>
			<stop  offset="5.948725e-02" style="stop-color:#FFE029"/>
			<stop  offset="0.1303" style="stop-color:#FFD218"/>
			<stop  offset="0.2032" style="stop-color:#FEC90F"/>
			<stop  offset="0.2809" style="stop-color:#FDC70C"/>
			<stop  offset="0.6685" style="stop-color:#F3903F"/>
			<stop  offset="0.8876" style="stop-color:#ED683C"/>
			<stop  offset="1" style="stop-color:#E93E3A"/>
		</linearGradient>
		<path class="st11" d="M172.4,76l1.5,0.3c0.2,0,0.3,0.1,0.4,0.1c0.1,0,0.2,0,0.3,0l0.3,0.2c0.1,0,0.2,0,0.3,0s0.2,0,0.2,0l-0.1,0.1
			l3.1,0.3c11.6,2.2,20.5,5.6,26.7,10.2c0.4,1,0.7,1.8,0.7,2.4c0,0.2,0,0.3-0.1,0.5c-0.6,2.1-2.5,3.6-5.8,4.5
			c-1.1,1.4-5.2,2.9-12.3,4.7l9.6,12.2c3.1,3.5,5.3,8.1,6.7,13.9c0,0.1-0.1,0.2-0.2,0.2c-0.5,0-2.6-3.1-6.2-9.3l6.9,13.8l-3.2-2.5
			c0.1,0.2,0.2,0.4,0.2,0.5v0.1l-0.5-0.1c-0.7-0.4-5.1-4.6-13.2-12.6c-3-3.7-6.2-8.1-9.7-13.4h-0.2c-2.2,8-4.8,15-7.9,20.9
			c-0.6,1.1-1.6,3.5-3.1,7.2l-0.3-0.1l0.7-2.5l-0.2-0.1l-0.5,1.2l-0.3,1l-0.2-0.1c-0.9-0.2-1.6-1.9-2-5.1c0-1.5,0.4-2.8,1.3-4
			l0.9-1.6c0-1-0.1-1.5-0.1-1.5s-0.1,0.1-0.1,0.2v-0.1c-0.2,0-1.3,2.9-3.3,8.6c0.8-3.2,1.2-5,1.2-5.4v-0.1c0,0,0,0-0.1,0.1L163,119
			c2.6-7.1,3.9-10.8,4-11.1l0.2-0.5l-0.2-0.1c-0.9,2.8-1.9,5.9-3.2,9.1l-1.2,2.2c-0.4,0.4-0.6,0.7-0.8,0.7c-0.1,0-0.2-0.1-0.2-0.3
			c0-1.1,1.3-4.7,4-11c0.8-2.9,1.6-6.8,2.6-11.9c0.5-1.9,1-3.3,1.5-4V92c0,0,0-0.1-0.1-0.1c1.5-2.9,2.8-6.3,3.9-10.2
			c-2.1-0.6-4.3-2.2-6.8-4.6l4-1.4C171.1,75.8,171.7,75.9,172.4,76z M185.8,84.9L185.8,84.9c0.9,0.2,1.3,0.3,1.4,0.3v0.1
			c-0.1,0-0.7,0-1.9-0.1l-1.8-0.2h-0.3v0.3c0,0.2,0,0.3,0,0.5l-1.5,4.6c-0.1,0-0.1,0-0.1,0h0.1c4.7-0.4,7.5-0.8,8.4-1.3
			c3.1-0.7,4.7-1.3,4.7-1.7l0.1-0.2c-2.3-1-5.2-1.8-8.8-2.4L185.8,84.9z"/>
	</g>
</g>
</svg>
